<svg
  viewBox="0 0 55 45"
  height="45px"
  width="55px"
  id="svg2"
  version="1.1"
  xmlns="http://www.w3.org/2000/svg"
>
  <g
    transform="matrix(1.333333, 0, 0, -1.333333, -18.291397, 73.006561)"
    id="g10"
  >
    <g
      transform="scale(0.1)"
      id="g12"
    >
      <path
        id="path38"
        style="fill:#231f20;fill-opacity:1;fill-rule:nonzero;stroke:none"
        d="m 244.66,243.543 -80.594,108.27 84.539,164.492 41.68,-0.578 -78.867,-153.649 c -1.758,-3.43 -1.387,-7.558 0.937,-10.625 L 294.23,243.836 Z m 301.133,-7.324 -98.203,295.109 c 0,0.024 -0.02,0.031 -0.02,0.051 -0.261,0.785 -0.625,1.547 -1.093,2.262 -0.059,0.086 -0.137,0.144 -0.196,0.234 -0.176,0.246 -0.39,0.453 -0.574,0.684 -0.422,0.496 -0.871,0.953 -1.367,1.355 -0.254,0.207 -0.508,0.387 -0.781,0.566 -0.547,0.36 -1.114,0.645 -1.711,0.891 -0.274,0.113 -0.528,0.234 -0.809,0.32 -0.898,0.282 -1.828,0.469 -2.793,0.485 l -63.117,0.883 c -0.039,0 -0.086,0 -0.137,0 -1.211,0 -2.351,-0.282 -3.445,-0.688 -0.313,-0.117 -0.598,-0.258 -0.899,-0.406 -0.793,-0.391 -1.515,-0.867 -2.179,-1.449 -0.215,-0.192 -0.449,-0.348 -0.653,-0.555 -0.742,-0.777 -1.406,-1.641 -1.875,-2.652 l -80,-170.664 c -2.343,-5 -0.187,-10.957 4.813,-13.301 1.367,-0.645 2.812,-0.949 4.23,-0.949 3.758,0 7.364,2.128 9.063,5.753 l 77.254,164.825 41.797,-0.586 -22.91,-54.196 c -0.008,0 -0.008,-0.003 -0.008,-0.003 l -13.028,-30.797 c 0,-0.004 0,-0.004 0,-0.008 L 311.41,254.305 232.094,358.543 315.441,520.934 c 1.575,3.082 1.446,6.757 -0.332,9.722 -1.777,2.965 -4.968,4.797 -8.425,4.848 l -64.004,0.887 c -4.102,-0.036 -7.297,-2.051 -9.035,-5.43 L 143.43,355.406 c -1.746,-3.386 -1.407,-7.48 0.871,-10.535 l 87.332,-117.336 c 1.894,-2.539 4.863,-4.031 8.027,-4.031 0.02,0 0.039,0 0.059,0 l 74.668,0.449 c 3.789,0.02 7.226,2.188 8.906,5.586 0.578,1.172 0.82,2.43 0.918,3.691 l 81.359,192.352 c 0,0.008 0,0.008 0,0.012 l 13.035,30.797 c 0,0.004 0,0.004 0,0.007 l 18.379,43.469 85.45,-256.804 h -49.317 l -34.316,115.519 c -1.571,5.293 -7.149,8.289 -12.442,6.738 -5.293,-1.582 -8.3,-7.148 -6.738,-12.441 l 36.445,-122.668 c 1.262,-4.238 5.157,-7.148 9.59,-7.148 h 70.645 c 3.215,0 6.242,1.542 8.117,4.152 1.883,2.605 2.391,5.957 1.375,9.004"
      />
    </g>
  </g>
</svg>